<svg width="47" height="47" viewBox="0 0 47 47" fill="none" xmlns="http://www.w3.org/2000/svg">
<path d="M18.3848 28.042L28.6378 18.4961" stroke="white" stroke-width="4" stroke-linecap="round"/>
<path d="M22.1836 14.4928L25.223 11.5084C27.1626 9.60391 30.0669 9.07345 32.5545 10.1693V10.1693C33.9333 10.7768 35.0646 11.8348 35.7627 13.1699L35.8791 13.3924C37.4322 16.3625 36.7821 20.0068 34.2979 22.2567L32.0151 24.3243" stroke="white" stroke-width="4" stroke-linecap="round"/>
<path d="M14.3043 21.9971L11.3199 25.0364C9.41543 26.976 8.88497 29.8804 9.98087 32.368V32.368C10.5883 33.7467 11.6464 34.878 12.9815 35.5762L13.2039 35.6925C16.174 37.2456 19.8183 36.5956 22.0682 34.1114L24.1358 31.8285" stroke="white" stroke-width="4" stroke-linecap="round"/>
</svg>
